<svg xmlns="http://www.w3.org/2000/svg" viewBox="0 0 512 512"><title>Fanai Resize</title><path d="M0 0h512v512H0z" fill="#081123"/><path d="M150 178h212v156H150z" fill="none" stroke="#fff" stroke-width="28"/><circle cx="314" cy="218" r="22" fill="#fff"/><path d="M150 222l62 52 45-38 105 98H150z" fill="#fff"/><path d="M108 126h58M108 126v58M404 126h-58M404 126v58M108 386h58M108 386v-58M404 386h-58M404 386v-58" fill="none" stroke="#22c8ee" stroke-width="18" stroke-linecap="round"/><path d="M252 250l50-50m0 0h-20m20 0v20" fill="none" stroke="#22c8ee" stroke-width="18" stroke-linecap="round" stroke-linejoin="round"/><text x="74" y="420" font-family="Arial,Helvetica,sans-serif" font-size="62" font-weight="700" fill="#fff">Fanai</text><text x="252" y="420" font-family="Arial,Helvetica,sans-serif" font-size="62" font-weight="700" fill="#20bff0">Resize</text></svg>